<?xml version="1.0" encoding="UTF-8" standalone="no"?>
<!-- Created with Inkscape (http://www.inkscape.org/) -->

<svg
   width="1024"
   height="1024"
   viewBox="0 0 270.93334 270.93334"
   version="1.1"
   id="svg1"
   inkscape:version="1.3.2 (091e20ef0f, 2023-11-25)"
   sodipodi:docname="Boost_D.svg"
   inkscape:export-filename="Boost_D.png"
   inkscape:export-xdpi="96"
   inkscape:export-ydpi="96"
   xmlns:inkscape="http://www.inkscape.org/namespaces/inkscape"
   xmlns:sodipodi="http://sodipodi.sourceforge.net/DTD/sodipodi-0.dtd"
   xmlns="http://www.w3.org/2000/svg"
   xmlns:svg="http://www.w3.org/2000/svg">
  <sodipodi:namedview
     id="namedview1"
     pagecolor="#ffffff"
     bordercolor="#111111"
     borderopacity="1"
     inkscape:showpageshadow="0"
     inkscape:pageopacity="0"
     inkscape:pagecheckerboard="1"
     inkscape:deskcolor="#d1d1d1"
     inkscape:document-units="px"
     showborder="false"
     showgrid="true"
     inkscape:zoom="0.67654286"
     inkscape:cx="328.13885"
     inkscape:cy="516.59698"
     inkscape:window-width="1440"
     inkscape:window-height="777"
     inkscape:window-x="0"
     inkscape:window-y="32"
     inkscape:window-maximized="1"
     inkscape:current-layer="layer1">
    <inkscape:grid
       id="grid1"
       units="px"
       originx="0"
       originy="0"
       spacingx="33.866667"
       spacingy="33.866667"
       empcolor="#0099e5"
       empopacity="0.30196078"
       color="#0099e5"
       opacity="0.14901961"
       empspacing="1"
       dotted="false"
       gridanglex="30"
       gridanglez="30"
       visible="true" />
  </sodipodi:namedview>
  <defs
     id="defs1">
    <filter
       inkscape:collect="always"
       style="color-interpolation-filters:sRGB"
       id="filter1"
       x="-0.014243443"
       y="-0.024987939"
       width="1.0284869"
       height="1.0499759">
      <feGaussianBlur
         inkscape:collect="always"
         stdDeviation="0.32400117"
         id="feGaussianBlur1" />
    </filter>
    <filter
       inkscape:collect="always"
       style="color-interpolation-filters:sRGB"
       id="filter2"
       x="-0.014243443"
       y="-0.024987937"
       width="1.0284869"
       height="1.0499759">
      <feGaussianBlur
         inkscape:collect="always"
         stdDeviation="0.32400117"
         id="feGaussianBlur2" />
    </filter>
    <filter
       inkscape:collect="always"
       style="color-interpolation-filters:sRGB"
       id="filter3"
       x="-0.014243442"
       y="-0.02498794"
       width="1.0284869"
       height="1.0499759">
      <feGaussianBlur
         inkscape:collect="always"
         stdDeviation="0.32400117"
         id="feGaussianBlur3" />
    </filter>
  </defs>
  <g
     inkscape:label="Layer 1"
     inkscape:groupmode="layer"
     id="layer1">
    <path
       style="opacity:0.868582;fill:#fffb03;fill-opacity:1;stroke:#f39600;stroke-width:4.23333;stroke-linecap:butt;stroke-linejoin:bevel;stroke-dasharray:none;stroke-opacity:1;paint-order:markers fill stroke;filter:url(#filter3)"
       d="M 33.866668,85.195839 C 67.733339,62.618059 101.60001,40.04028 135.46668,17.4625 c 33.86667,22.57778 67.73333,45.155559 101.6,67.733339 0,11.288884 0,22.577771 0,33.866651 -33.86667,-22.577773 -67.73333,-45.155547 -101.6,-67.73332 -33.86667,22.577773 -67.733341,45.155547 -101.600011,67.73332 0,-11.28888 -1e-6,-22.577767 -1e-6,-33.866651 z"
       id="path1" />
    <path
       style="opacity:0.868582;fill:#fffb03;fill-opacity:1;stroke:#f39600;stroke-width:4.23333;stroke-linecap:butt;stroke-linejoin:bevel;stroke-dasharray:none;stroke-opacity:1;paint-order:markers fill stroke;filter:url(#filter1)"
       d="M 33.86666,152.92916 C 67.73333,130.35138 101.6,107.77361 135.46667,85.195829 c 33.86667,22.577781 67.73333,45.155551 101.6,67.733331 0,11.28889 0,22.57777 0,33.86666 C 203.2,164.21804 169.33334,141.64027 135.46667,119.06249 101.6,141.64027 67.733331,164.21804 33.866661,186.79582 c 0,-11.28889 -10e-7,-22.57777 -10e-7,-33.86666 z"
       id="path1-5" />
    <path
       style="opacity:0.868582;fill:#fffb03;fill-opacity:1;stroke:#f39600;stroke-width:4.23333;stroke-linecap:butt;stroke-linejoin:bevel;stroke-dasharray:none;stroke-opacity:1;paint-order:markers fill stroke;filter:url(#filter2)"
       d="M 33.866667,220.6625 C 67.733335,198.08472 101.6,175.50694 135.46667,152.92916 c 33.86667,22.57778 67.73333,45.15556 101.6,67.73334 0,11.28889 0,22.57777 0,33.86666 C 203.2,231.95138 169.33334,209.37361 135.46667,186.79583 101.6,209.37361 67.733335,231.95138 33.866668,254.52916 c 0,-11.28889 -10e-7,-22.57777 -10e-7,-33.86666 z"
       id="path1-2" />
  </g>
</svg>
