<?xml version="1.0" encoding="UTF-8" standalone="no"?>
<!-- Created with Inkscape (http://www.inkscape.org/) -->

<svg
   width="512"
   height="512"
   viewBox="0 0 512 512"
   version="1.1"
   id="svg1"
   xml:space="preserve"
   inkscape:version="1.3.2 (091e20ef0f, 2023-11-25)"
   sodipodi:docname="Sign_D.svg"
   inkscape:export-filename="Sign_D.png"
   inkscape:export-xdpi="96"
   inkscape:export-ydpi="96"
   xmlns:inkscape="http://www.inkscape.org/namespaces/inkscape"
   xmlns:sodipodi="http://sodipodi.sourceforge.net/DTD/sodipodi-0.dtd"
   xmlns="http://www.w3.org/2000/svg"
   xmlns:svg="http://www.w3.org/2000/svg"><sodipodi:namedview
     id="namedview1"
     pagecolor="#ffffff"
     bordercolor="#111111"
     borderopacity="1"
     inkscape:showpageshadow="0"
     inkscape:pageopacity="0"
     inkscape:pagecheckerboard="1"
     inkscape:deskcolor="#d1d1d1"
     inkscape:document-units="px"
     showborder="false"
     inkscape:zoom="0.57178995"
     inkscape:cx="219.48619"
     inkscape:cy="301.68421"
     inkscape:window-width="1440"
     inkscape:window-height="777"
     inkscape:window-x="0"
     inkscape:window-y="32"
     inkscape:window-maximized="1"
     inkscape:current-layer="layer3" /><defs
     id="defs1" /><g
     inkscape:groupmode="layer"
     id="layer3"
     inkscape:label="Layer 3"
     style="display:inline"
     sodipodi:insensitive="true"><path
       style="fill:#ffdf02;fill-opacity:1;stroke:#000000;stroke-width:1px;stroke-linecap:butt;stroke-linejoin:miter;stroke-opacity:1"
       d="M 28.465308,448.51772 259.74698,53.906872 489.58321,451.15158 Z"
       id="path2" /></g><g
     inkscape:groupmode="layer"
     id="layer2"
     inkscape:label="Layer 2"
     style="display:inline"><path
       style="display:inline;fill:#d30000;fill-opacity:1"
       d="M 38.298002,475.15485 C 22.488984,470.88053 11.84322,459.72991 8.5295106,443.97463 c -2.487364,-11.82635 -0.02548,-20.97946 10.2961474,-38.28039 2.132823,-3.575 8.529212,-14.6 14.214196,-24.5 5.684984,-9.9 16.843488,-29.25 24.796674,-43 7.953186,-13.75 17.164821,-29.725 20.470299,-35.5 3.305478,-5.775 6.849332,-11.71928 7.87523,-13.20951 1.025899,-1.49023 1.865271,-2.98737 1.865271,-3.32699 0,-0.33962 2.429133,-4.74534 5.398074,-9.79049 7.187638,-12.21404 30.649558,-52.87673 34.142158,-59.17301 1.52545,-2.75 4.66407,-8.15 6.97472,-12 2.31064,-3.85 8.04397,-13.75 12.74073,-22 13.18859,-23.16614 50.45338,-87.689792 55.73231,-96.499999 1.81253,-3.025 4.26873,-7.3 5.45821,-9.5 11.53908,-21.341904 17.2689,-29.955883 23.0538,-34.658138 15.47439,-12.578354 33.6715,-12.82481 50.71762,-0.686901 2.74472,1.954411 10.27078,12.012804 12.60409,16.845039 0.66394,1.375 4.18854,7.45 7.83244,13.5 3.64391,6.05 7.9726,13.466785 9.61932,16.481743 1.64672,3.014959 4.05884,7.168517 5.36028,9.230129 1.30144,2.061608 2.36625,4.003947 2.36625,4.316287 0,0.31235 1.575,3.03003 3.5,6.03929 1.925,3.00926 3.5,5.65046 3.5,5.86934 0,0.21887 2.10154,3.92264 4.67008,8.23058 2.56854,4.30795 7.22244,12.33263 10.342,17.83263 6.95632,12.26448 30.02892,52.14239 36.35377,62.83263 2.54878,4.30794 4.63415,8.06512 4.63415,8.34927 0,0.28416 1.51849,3.05947 3.37443,6.16737 1.85594,3.1079 6.6387,11.27573 10.62837,18.15073 3.98966,6.875 9.44616,16.15564 12.12556,20.62364 2.6794,4.468 4.87164,8.36363 4.87164,8.65697 0,0.29333 2.775,5.18769 6.16667,10.87636 3.39166,5.68867 8.7168,14.84303 11.83364,20.34303 3.11684,5.5 9.0533,15.85 13.19213,23 4.13883,7.15 10.90434,18.85 15.03447,26 4.13012,7.15 13.25895,22.9 20.28628,35 17.41407,29.98438 22.10242,38.6014 23.92827,43.97931 1.839,5.41667 2.03248,16.7162 0.39944,23.32787 -2.53971,10.28249 -12.29469,21.1272 -23.46292,26.084 l -5.87798,2.60882 -216,0.18994 C 75.712342,476.54583 42.76564,476.36277 38.298002,475.15485 Z m 416.749328,-45.9953 c 0,-0.60319 -8.15059,-15.11459 -11.49472,-20.46531 -1.2031,-1.925 -3.32034,-5.525 -4.70498,-8 -2.5257,-4.51459 -4.94312,-8.7667 -8.95426,-15.75 -1.18468,-2.0625 -3.09718,-5.55 -4.25,-7.75 -1.15282,-2.2 -2.35075,-4.225 -2.66207,-4.5 -0.31132,-0.275 -1.95535,-2.975 -3.65339,-6 -1.69805,-3.025 -4.10674,-7.3 -5.35264,-9.5 -1.2459,-2.2 -3.91364,-6.925 -5.92832,-10.5 -2.01467,-3.575 -5.08877,-8.8823 -6.83133,-11.79401 -1.74256,-2.9117 -3.16829,-5.4398 -3.16829,-5.618 0,-0.1782 -3.15,-5.55478 -7,-11.94796 -3.85,-6.39318 -7,-12.04008 -7,-12.54866 0,-0.50859 -0.37457,-1.0747 -0.83237,-1.25804 -0.4578,-0.18333 -2.19233,-2.80833 -3.85451,-5.83333 -1.66218,-3.025 -4.27082,-7.75 -5.79698,-10.5 -4.13922,-7.45851 -16.42417,-28.46438 -19.14077,-32.72856 -1.30645,-2.05071 -2.37537,-3.97134 -2.37537,-4.26807 0,-0.29673 -1.8,-3.50237 -4,-7.12364 -2.2,-3.62128 -4,-6.77081 -4,-6.99896 0,-0.22814 -1.96148,-3.66965 -4.35884,-7.64779 -2.39736,-3.97814 -5.48374,-9.25798 -6.85862,-11.73298 -2.46847,-4.44364 -5.3207,-9.50042 -7.9385,-14.07433 -0.73922,-1.29158 -1.86298,-2.91681 -2.49723,-3.61162 -0.63426,-0.69481 -2.43354,-3.97471 -3.9984,-7.28867 -1.56487,-3.31396 -3.18343,-6.02538 -3.59681,-6.02538 -0.41338,0 -0.7516,-0.45766 -0.7516,-1.01702 0,-0.55936 -1.96085,-4.27186 -4.35746,-8.25 -6.31208,-10.47748 -15.64254,-26.81028 -15.64254,-27.38198 0,-0.26986 -1.27424,-2.37173 -2.83164,-4.67082 -1.55741,-2.2991 -3.12686,-4.99003 -3.48767,-5.97984 -0.36082,-0.98981 -2.68658,-5.14465 -5.16836,-9.23298 -2.48178,-4.08832 -4.51233,-7.89098 -4.51233,-8.45034 0,-0.55936 -0.45,-1.01702 -1,-1.01702 -0.55,0 -1,-0.45813 -1,-1.01807 0,-0.55994 -1.8,-3.98093 -4,-7.6022 -2.2,-3.62128 -4,-6.75691 -4,-6.96807 0,-0.36483 -9.94321,-17.369497 -10.76105,-18.403329 -0.41788,-0.528236 -1.05295,0.447813 -5.83738,8.971607 -5.02571,8.953662 -6.75408,11.933272 -13.7522,23.707942 -3.65715,6.15333 -6.64937,11.85333 -6.64937,12.66666 0,0.81334 -0.42406,1.62879 -0.94235,1.81213 -1.05445,0.37298 -16.05765,26.4434 -16.05765,27.90268 0,0.51186 -0.3375,0.93416 -0.75,0.93845 -0.4125,0.004 -1.24144,1.01679 -1.8421,2.25 -0.60065,1.23321 -3.47136,6.2922 -6.37935,11.2422 -2.908,4.95 -6.30867,10.8 -7.55704,13 -6.85022,12.07204 -14.14041,24.65545 -17.09083,29.5 -1.84228,3.025 -4.00727,6.88984 -4.8111,8.58854 -1.2555,2.65321 -9.6073,16.87594 -12.57314,21.41146 -0.93599,1.43137 -3.84107,6.54614 -9.93961,17.5 -1.53106,2.75 -5.15295,9.05 -8.04865,14 -2.8957,4.95 -6.02923,10.35 -6.96341,12 -0.93417,1.65 -3.4639,6.04927 -5.62163,9.77615 -2.15773,3.72688 -4.61153,8.00188 -5.45289,9.5 -0.84136,1.49812 -2.8198,4.97385 -4.39654,7.72385 -1.57673,2.75 -4.902,8.6 -7.38948,13 -2.48748,4.4 -5.05765,8.675 -5.71149,9.5 -0.65384,0.825 -2.70447,4.425 -4.55696,8 -1.85248,3.575 -3.63035,6.725 -3.95081,7 -0.32046,0.275 -2.299865,3.65 -4.398684,7.5 -2.098819,3.85 -5.052417,9.025 -6.563551,11.5 -5.143973,8.42502 -29.947011,51.69121 -30.583151,53.34896 -0.587613,1.5313 13.734465,1.65104 197.473426,1.65104 108.95885,0 198.10699,-0.24061 198.10699,-0.53469 z"
       id="path1"
       sodipodi:nodetypes="ssssssssssssscssssssssssssssssssssssssscssssssssssssssssssssssssssssssssssssssssssssscsssssssssssssssssssss" /></g><g
     inkscape:groupmode="layer"
     id="layer4"
     inkscape:label="Layer 4"><path
       d="m 102.47783,391.1327 v -20.38652 l 13.75251,-0.37768 c 12.44079,-0.34165 14.22918,-0.62503 18.75,-2.97097 6.09387,-3.16223 10.42507,-8.63868 16.9407,-21.4201 8.05451,-15.80016 11.3872,-19.77108 20.28169,-24.16576 6.75898,-3.33955 8.5175,-3.78552 14.72536,-3.73439 5.51323,0.0454 8.41139,0.67429 13.29722,2.88543 7.34792,3.3254 10.93961,7.02384 21.25252,21.88421 17.63221,25.40711 21.74086,29.27401 32.25746,30.35942 10.52329,1.0861 18.74967,-3.48378 26.59007,-14.77121 2.55886,-3.68386 7.95427,-11.46561 11.98981,-17.29277 12.42879,-17.94673 20.30071,-23.1701 34.66266,-23.00023 5.73955,0.0679 8.10196,0.64024 13.11986,3.17864 8.2023,4.1493 13.09642,9.99193 20.44724,24.41011 6.7197,13.18026 11.2029,18.86332 17.36469,22.0121 3.37549,1.72494 6.49463,2.16177 18.31821,2.56547 l 14.25,0.48653 v 20.36212 20.36212 h -154 -154 z"
       style="display:inline;fill:#1a1a1a;fill-opacity:1"
       id="path1-1" /></g></svg>
